<?xml version="1.0" standalone="no"?>
<!DOCTYPE svg PUBLIC "-//W3C//DTD SVG 20010904//EN"
 "http://www.w3.org/TR/2001/REC-SVG-20010904/DTD/svg10.dtd">
<svg version="1.0" xmlns="http://www.w3.org/2000/svg"
 width="512.000000pt" height="512.000000pt" viewBox="0 0 512.000000 512.000000"
 preserveAspectRatio="xMidYMid meet">
<metadata>
Created by potrace 1.14, written by Peter Selinger 2001-2017
</metadata>
<g transform="translate(0.000000,512.000000) scale(0.100000,-0.100000)"
fill="#000000" stroke="none">
<path d="M2546 4982 c-3 -5 1 -9 9 -9 8 0 15 4 15 9 0 4 -4 8 -9 8 -6 0 -12
-4 -15 -8z"/>
<path d="M2679 4983 c-1 -5 -1 -12 0 -17 1 -5 -5 -6 -14 -2 -10 3 -14 2 -10
-5 9 -14 28 -6 31 14 1 9 0 17 -2 17 -2 0 -5 -3 -5 -7z"/>
<path d="M2356 4967 c3 -10 9 -15 12 -12 3 3 0 11 -7 18 -10 9 -11 8 -5 -6z"/>
<path d="M2243 4958 c-4 -7 -8 -17 -8 -22 0 -6 -13 -10 -30 -10 -16 0 -33 -4
-37 -10 -10 -16 -41 -13 -56 4 -11 12 -11 11 0 -10 7 -14 11 -29 10 -33 -1 -5
2 -6 8 -2 18 11 49 14 55 4 4 -5 12 -9 18 -9 7 0 1 9 -13 20 -14 11 -20 20
-13 20 6 0 14 -4 17 -9 13 -21 55 1 51 27 -1 9 2 23 8 30 5 6 7 12 4 12 -3 0
-9 -6 -14 -12z m-9 -47 c-9 -9 -34 -9 -40 0 -3 5 6 8 20 7 14 -1 23 -4 20 -7z"/>
<path d="M2470 4958 c0 -4 4 -8 9 -8 6 0 12 4 15 8 3 5 -1 9 -9 9 -8 0 -15 -4
-15 -9z"/>
<path d="M2588 4953 c-3 -19 -46 -26 -65 -11 -9 7 -18 7 -27 -1 -11 -9 -19 -9
-35 1 -17 11 -25 10 -42 -1 -17 -10 -23 -10 -29 -1 -6 9 -9 9 -15 0 -5 -8 -12
-6 -26 6 -14 12 -23 14 -30 7 -8 -8 -7 -13 2 -18 8 -5 10 -4 5 3 -4 7 -3 12 3
12 15 0 21 -14 12 -29 -7 -11 -13 -10 -28 5 -22 21 -48 31 -38 14 3 -5 1 -10
-5 -10 -7 0 -10 -7 -7 -14 5 -14 -26 -33 -45 -28 -4 1 -5 -7 -3 -16 2 -13 -3
-18 -16 -17 -10 1 -22 5 -26 10 -5 4 -2 5 6 0 9 -5 12 -4 7 3 -6 10 -36 9 -56
-3 -5 -3 -15 6 -22 20 -13 24 -14 24 -26 5 -7 -11 -8 -20 -3 -20 5 0 11 5 13
10 2 6 11 -3 21 -19 14 -24 15 -29 2 -27 -8 1 -18 6 -22 11 -4 4 -2 5 5 1 12
-7 17 6 6 17 -10 9 -34 -4 -27 -16 3 -6 1 -7 -6 -3 -6 4 -8 12 -5 18 5 7 1 9
-9 5 -9 -3 -19 -1 -23 5 -4 6 -3 8 3 5 6 -4 19 3 29 14 16 18 16 19 1 13 -9
-3 -17 -10 -17 -16 0 -5 -4 -7 -9 -3 -17 10 -22 -13 -6 -28 19 -20 20 -33 1
-18 -9 7 -17 8 -20 2 -3 -5 0 -11 6 -14 7 -2 10 -7 7 -11 -3 -3 -14 4 -25 16
-10 12 -14 18 -7 15 21 -13 23 9 3 30 -10 12 -16 24 -12 29 4 4 1 4 -6 0 -11
-6 -11 -11 0 -24 11 -13 10 -15 -5 -9 -10 4 -16 3 -12 -2 3 -5 1 -12 -5 -16
-5 -3 -10 -1 -10 4 0 6 -9 2 -20 -9 -21 -21 -35 -25 -43 -12 -2 4 -2 1 -1 -5
3 -13 -7 -17 -38 -14 -16 2 -19 -21 -5 -35 4 -4 7 -12 7 -18 0 -5 -7 -1 -15
10 -14 19 -15 18 -21 -4 -4 -14 -12 -21 -20 -18 -7 3 -21 -3 -31 -12 -16 -16
-17 -16 -10 0 3 10 2 20 -2 23 -11 6 -23 -23 -16 -36 4 -5 -2 -6 -11 -2 -12 4
-15 3 -10 -5 4 -7 2 -12 -4 -12 -7 0 -9 9 -5 23 6 19 2 18 -25 -10 -34 -36
-55 -41 -64 -17 -4 10 -2 13 6 8 7 -5 8 -3 3 6 -5 9 -4 11 4 6 6 -4 8 -12 5
-18 -4 -6 -1 -9 6 -6 22 7 20 35 -3 55 l-22 18 19 -22 c23 -27 6 -31 -17 -5
-10 10 -14 23 -10 28 4 5 1 3 -7 -4 -12 -10 -12 -14 -2 -21 17 -10 17 -21 0
-32 -8 -6 -18 -2 -27 9 -12 15 -12 15 -6 -5 4 -14 2 -23 -4 -23 -6 0 -11 6
-11 14 0 8 -4 17 -9 20 -5 4 -7 -3 -4 -14 4 -15 2 -19 -10 -15 -10 5 -14 -1
-14 -19 0 -14 3 -26 8 -26 4 0 6 10 4 22 -3 16 -2 19 7 10 8 -8 19 -7 40 4 17
9 32 13 36 10 3 -3 -1 -6 -9 -6 -8 -1 -3 -8 11 -16 14 -8 17 -13 8 -10 -23 7
-50 -3 -42 -16 4 -6 -3 -5 -15 1 -15 9 -21 9 -21 1 0 -6 -10 -10 -22 -8 -18 2
-23 9 -21 28 1 16 0 18 -3 7 -6 -20 -31 -17 -26 3 3 11 0 11 -12 1 -9 -7 -22
-11 -29 -8 -8 3 -14 -1 -14 -8 0 -7 8 -10 19 -7 10 2 18 -1 18 -7 0 -7 -5 -9
-12 -5 -7 4 -8 3 -4 -4 3 -6 -2 -16 -13 -21 -28 -15 -38 -14 -17 2 16 12 16
14 2 14 -9 0 -16 -4 -16 -9 0 -4 0 -11 0 -15 0 -5 9 -9 20 -9 11 -1 20 4 20
10 0 6 4 5 9 -2 7 -11 9 -10 15 3 3 9 11 13 17 9 6 -3 14 -2 18 3 3 5 16 4 31
-5 l25 -14 -26 6 c-19 4 -38 -2 -63 -19 -21 -14 -35 -21 -32 -16 4 5 2 12 -4
16 -5 3 -10 -1 -10 -9 0 -24 -19 -19 -32 8 l-11 25 -17 -22 c-15 -17 -20 -19
-33 -9 -12 10 -16 10 -20 -2 -4 -9 -1 -18 5 -22 7 -4 8 -3 4 4 -4 7 -3 12 3
12 17 0 21 -17 7 -29 -10 -8 -16 -9 -21 -1 -8 13 -25 13 -25 -1 0 -5 5 -7 10
-4 6 3 10 2 10 -3 0 -17 -13 -22 -28 -9 -13 10 -14 9 -8 -2 7 -10 3 -12 -15
-7 -13 3 -18 3 -11 0 10 -5 10 -10 -4 -25 -9 -10 -21 -16 -27 -12 -5 3 -7 1
-3 -5 3 -6 2 -13 -3 -16 -5 -4 -12 2 -14 11 -4 14 -5 13 -6 -4 0 -13 -4 -22
-8 -22 -26 4 -34 -1 -21 -15 11 -12 14 -12 21 0 5 8 12 12 18 9 5 -4 9 -1 9 4
0 6 3 10 8 10 23 -4 34 3 28 17 -4 10 -2 13 6 8 7 -5 8 -3 3 6 -6 9 -4 11 5 5
9 -6 11 -4 5 5 -5 8 -4 11 3 6 5 -3 13 0 15 6 3 7 6 5 6 -6 1 -19 16 -14 16 5
0 5 3 8 7 7 4 -2 14 6 23 17 13 16 16 17 11 3 -3 -10 -1 -20 5 -23 12 -8 2
-25 -14 -25 -8 0 -8 3 2 9 8 5 9 11 3 15 -6 3 -17 -3 -25 -14 -10 -14 -20 -18
-32 -14 -14 6 -16 4 -10 -7 4 -8 5 -11 0 -7 -5 5 -14 -1 -22 -12 -8 -11 -21
-20 -29 -20 -8 0 -14 -5 -14 -11 0 -5 6 -7 13 -3 8 5 7 2 -2 -9 -10 -13 -17
-15 -27 -6 -8 6 -14 8 -14 5 0 -4 -9 -2 -20 4 -16 9 -25 6 -44 -14 -14 -13
-28 -21 -32 -17 -4 3 -4 0 1 -8 6 -10 2 -12 -13 -7 -11 4 -23 2 -27 -3 -4 -7
1 -8 12 -4 32 12 -4 -23 -38 -38 -24 -9 -27 -14 -16 -20 8 -5 24 -7 36 -4 12
2 19 0 16 -6 -4 -5 -1 -9 5 -9 6 0 8 -5 4 -11 -5 -8 -10 -7 -16 4 -5 9 -15 14
-23 11 -8 -4 -12 -10 -9 -15 3 -5 -6 -20 -19 -33 -14 -14 -22 -27 -20 -30 11
-11 -40 4 -56 16 -14 11 -14 11 -4 -3 7 -9 9 -20 5 -24 -4 -5 -1 -5 6 -1 17
10 28 -22 12 -37 -10 -9 -14 -9 -17 1 -3 6 -9 10 -14 7 -5 -3 -17 -1 -28 5
-14 7 -22 7 -27 -2 -4 -7 -3 -8 4 -4 23 14 12 -14 -15 -39 -15 -14 -23 -25
-18 -25 6 0 3 -5 -5 -11 -13 -9 -13 -10 0 -6 8 2 14 10 12 16 -3 15 15 14 22
-1 3 -7 4 -4 3 7 -1 12 3 19 11 17 8 -1 11 2 7 8 -12 19 5 31 27 19 20 -11 20
-13 5 -24 -9 -6 -14 -15 -10 -19 4 -4 0 -4 -9 -1 -11 4 -18 0 -23 -16 -5 -15
-9 -18 -15 -9 -10 16 -18 1 -15 -27 1 -19 -1 -21 -13 -10 -13 10 -14 8 -8 -13
6 -19 5 -21 -3 -10 -10 14 -12 13 -15 -9 -2 -15 -89 -131 -98 -131 -5 0 -7 -4
-3 -9 3 -5 0 -13 -6 -17 -8 -5 -9 -3 -4 6 6 10 4 12 -9 7 -11 -5 -15 -3 -10 5
4 7 3 8 -4 4 -7 -4 -12 -2 -12 3 0 6 -5 11 -11 11 -8 0 -7 -5 1 -15 10 -13 10
-19 -4 -34 -22 -24 -11 -58 12 -39 14 12 14 11 1 -9 -17 -28 -39 -37 -53 -22
-8 9 -7 10 6 6 29 -10 29 9 0 34 l-27 24 20 -24 c18 -22 18 -24 2 -18 -10 4
-16 3 -12 -2 3 -5 -1 -12 -7 -14 -10 -4 -10 -6 0 -6 6 -1 12 -6 12 -11 0 -6
-3 -9 -7 -9 -20 3 -34 -2 -28 -10 3 -5 1 -12 -5 -16 -6 -4 -8 -11 -5 -16 4 -5
-1 -16 -10 -25 -9 -9 -14 -23 -10 -31 4 -11 0 -13 -12 -9 -10 4 -5 -5 11 -19
32 -28 30 -31 -9 -13 -28 13 -59 -2 -34 -17 8 -5 10 -4 5 3 -4 7 -1 12 9 12 9
0 13 -5 10 -10 -4 -6 -1 -9 5 -8 7 2 14 -5 15 -14 2 -10 0 -17 -3 -17 -19 3
-23 -3 -12 -17 8 -8 9 -14 4 -12 -5 2 -9 1 -10 -2 0 -3 -7 -16 -14 -30 -8 -14
-15 -27 -16 -30 -5 -21 -20 -46 -31 -53 -10 -6 -11 -12 -4 -21 8 -10 6 -18 -8
-30 -11 -10 -18 -28 -16 -41 2 -23 1 -24 -27 -9 -28 14 -29 14 -20 -2 7 -13 5
-27 -6 -51 -13 -27 -18 -31 -31 -20 -14 11 -15 10 -1 -7 14 -18 13 -19 -3 -13
-11 4 -16 3 -12 -3 10 -16 33 -11 39 8 6 18 36 27 36 10 0 -4 -5 -8 -10 -8 -6
0 -8 -11 -6 -25 3 -17 1 -23 -6 -19 -7 5 -9 0 -6 -14 4 -12 2 -25 -3 -28 -5
-3 -6 -10 -3 -16 5 -7 2 -8 -6 -3 -9 5 -10 2 -5 -14 4 -13 2 -21 -5 -21 -6 0
-9 4 -6 9 3 5 -1 14 -9 21 -10 9 -15 9 -15 1 0 -6 4 -11 9 -11 5 0 8 -29 8
-64 -1 -52 -3 -63 -16 -58 -9 3 -12 1 -7 -6 4 -7 2 -13 -3 -13 -21 -3 -26 -4
-38 -12 -15 -10 -17 -27 -3 -27 6 0 9 3 8 8 -2 4 -1 7 2 8 3 0 15 6 27 12 14
8 24 9 28 2 3 -5 -1 -10 -10 -10 -11 0 -14 -6 -9 -25 4 -17 1 -27 -9 -31 -19
-7 -29 -31 -16 -39 5 -4 8 -1 7 6 -2 6 2 13 8 16 6 2 11 -3 11 -12 0 -8 -5
-15 -10 -15 -5 0 -7 -14 -5 -30 4 -27 2 -30 -16 -25 -12 3 -15 2 -8 -1 6 -3
10 -10 7 -15 -4 -5 2 -6 12 -3 15 6 15 4 -2 -9 -11 -9 -15 -17 -9 -17 13 0 14
-31 1 -47 -6 -9 -5 -13 4 -13 8 -1 2 -8 -13 -16 -16 -8 -28 -17 -28 -20 0 -2
9 0 19 6 26 14 31 13 25 -5 -4 -8 -11 -12 -18 -8 -6 3 -6 1 2 -8 16 -17 16
-32 -1 -23 -7 5 -6 1 3 -10 16 -21 23 -49 9 -40 -5 3 -9 0 -9 -6 0 -6 -6 -8
-12 -5 -7 4 -3 -2 9 -13 17 -15 19 -22 10 -32 -9 -10 -9 -14 1 -17 6 -3 10 -8
8 -11 -9 -15 -16 -83 -8 -78 5 3 8 -7 7 -22 -1 -15 2 -35 7 -44 7 -14 5 -16
-9 -11 -10 3 -15 2 -10 -2 4 -5 -1 -18 -10 -29 -14 -15 -14 -18 -2 -8 9 6 20
8 24 4 5 -4 5 0 0 8 -5 8 -5 12 0 8 4 -4 9 -25 11 -45 1 -21 5 -51 8 -66 4
-26 3 -27 -12 -16 -9 8 -7 2 6 -12 22 -25 30 -45 13 -35 -5 3 -15 -2 -22 -12
-12 -15 -12 -16 2 -5 16 13 29 8 29 -9 0 -5 -4 -7 -9 -3 -5 3 -13 1 -16 -5 -4
-6 -3 -10 2 -9 27 5 33 -7 36 -78 1 -13 5 -23 10 -23 4 0 5 -5 2 -10 -3 -6 0
-10 7 -10 9 0 9 -3 -2 -10 -9 -6 -11 -10 -3 -10 7 0 10 -7 6 -17 -4 -11 -3
-14 5 -9 16 10 15 -6 0 -23 -10 -11 -10 -13 0 -7 11 6 14 0 11 -20 0 -4 5 -11
13 -15 10 -7 10 -9 0 -9 -7 0 -10 -5 -7 -10 4 -6 11 -8 16 -5 14 9 11 -2 -6
-19 -9 -9 -11 -17 -5 -21 5 -3 10 -1 10 4 0 23 16 10 18 -15 1 -17 -2 -23 -11
-19 -6 4 -1 -3 13 -14 17 -14 20 -21 10 -21 -11 0 -10 -4 5 -12 19 -11 19 -11
0 -19 -18 -7 -17 -8 5 -8 20 -1 22 -3 10 -11 -13 -8 -13 -10 2 -10 11 0 15 -5
12 -15 -3 -8 1 -22 10 -31 9 -8 14 -20 11 -25 -4 -5 0 -9 7 -9 11 0 10 -2 0
-9 -10 -6 -8 -10 9 -14 13 -4 20 -9 16 -13 -4 -4 -1 -14 6 -22 10 -13 9 -15
-5 -9 -10 3 -18 4 -18 1 0 -2 11 -9 25 -14 16 -6 23 -14 19 -25 -4 -8 -1 -15
6 -15 10 0 10 -3 0 -15 -11 -13 -10 -14 6 -9 10 4 16 4 12 -1 -4 -4 0 -14 10
-22 9 -8 11 -11 3 -7 -8 4 -3 -8 12 -28 15 -19 27 -43 27 -52 0 -9 5 -14 10
-11 9 6 14 -8 11 -27 0 -5 6 -8 15 -8 8 0 13 -4 9 -10 -3 -5 3 -18 15 -30 11
-11 21 -25 23 -31 1 -6 11 -21 22 -33 11 -12 29 -34 40 -50 11 -16 28 -36 38
-45 9 -8 17 -19 17 -23 0 -4 18 -25 39 -47 21 -22 36 -42 33 -45 -3 -3 3 -6
13 -6 15 0 16 -2 4 -17 -11 -13 -11 -15 -1 -9 9 5 29 -9 62 -42 27 -28 52 -47
56 -44 4 4 4 -1 1 -11 -4 -11 -3 -16 3 -12 6 3 13 -1 16 -9 3 -9 10 -14 14
-11 4 2 16 -6 26 -20 10 -13 21 -22 26 -19 4 3 8 -2 8 -11 0 -9 4 -13 10 -10
5 3 10 2 10 -4 0 -5 9 -13 20 -16 11 -3 20 -13 20 -21 0 -8 4 -13 9 -9 17 10
22 -14 23 -106 1 -49 4 -92 8 -94 4 -2 17 -1 29 2 20 5 22 11 18 39 -4 25 -2
34 8 34 8 0 12 6 9 14 -3 7 3 17 13 20 10 4 19 2 21 -3 2 -6 8 -9 13 -5 5 3 9
0 9 -6 0 -6 5 -8 10 -5 5 3 10 1 10 -5 0 -6 5 -8 10 -5 6 3 10 2 10 -3 0 -5
10 -12 21 -15 15 -4 20 -11 15 -23 -5 -14 -4 -15 9 -4 11 9 15 9 15 1 0 -7 4
-9 10 -6 5 3 10 1 10 -4 0 -6 9 -11 20 -11 25 0 46 -36 30 -55 -7 -9 -8 -15 0
-20 5 -3 10 -15 10 -26 0 -14 -4 -18 -12 -13 -10 6 -10 5 -1 -7 13 -16 13 -16
13 -70 0 -22 4 -38 9 -35 5 4 11 1 13 -5 3 -8 10 -5 22 6 12 13 14 21 7 28
-14 14 -14 54 -1 62 6 4 10 12 9 18 -1 7 -1 26 0 42 1 23 3 27 11 15 5 -8 10
-12 10 -8 0 4 16 -1 36 -12 19 -11 39 -18 45 -15 5 4 9 1 9 -4 0 -6 7 -11 15
-11 8 0 15 -4 15 -8 0 -4 12 -9 28 -10 15 -1 29 -7 30 -12 2 -6 8 -8 13 -4 5
3 9 1 9 -4 0 -6 10 -8 23 -6 20 4 20 4 2 -4 -11 -5 -36 -8 -56 -6 -25 2 -39
-2 -43 -11 -9 -25 15 -30 143 -31 87 -1 125 -5 131 -14 5 -8 9 -9 11 -1 4 11
25 6 97 -20 15 -6 22 -5 22 4 0 9 2 9 8 1 4 -7 18 -14 32 -15 14 -2 28 -8 32
-14 5 -6 8 -6 8 2 0 6 8 10 18 8 9 -1 16 -9 14 -16 -3 -11 0 -11 8 -3 7 7 24
9 43 4 18 -4 40 -6 50 -4 9 1 17 -1 17 -4 0 -4 24 -7 53 -6 28 0 57 -4 64 -8
6 -5 14 -4 18 2 5 8 14 6 28 -7 19 -16 20 -16 8 0 -15 19 -2 24 17 5 9 -9 12
-9 13 2 0 10 4 7 9 -5 8 -18 9 -18 9 -2 1 15 5 16 21 7 11 -6 20 -7 20 -3 0 4
15 8 34 8 19 0 32 -4 29 -9 -4 -5 0 -5 8 0 8 4 37 9 64 11 123 6 196 16 216
29 8 5 9 3 4 -7 -7 -11 -6 -12 6 -2 12 10 18 10 29 0 10 -9 11 -9 6 0 -7 12
17 18 53 14 7 -2 10 2 7 7 -3 5 6 8 19 6 14 -1 25 2 25 7 0 4 7 6 15 3 8 -4
15 -1 15 6 0 10 3 10 15 0 12 -10 15 -10 15 0 0 7 6 10 14 7 8 -3 17 -3 21 1
6 6 64 9 207 11 25 1 40 7 47 19 8 15 4 17 -25 17 -19 0 -34 -3 -34 -7 0 -3
-9 -4 -20 -1 -11 3 -20 9 -20 14 0 5 7 5 17 2 10 -4 14 -2 10 4 -4 6 4 13 18
15 13 3 26 0 29 -6 2 -6 5 -3 5 6 1 10 4 17 9 16 4 -1 17 3 28 10 12 6 24 8
28 5 3 -3 6 -1 6 6 0 7 6 11 14 8 8 -3 16 -3 18 1 2 4 17 15 33 24 l31 17 2
-35 c2 -26 -1 -34 -9 -28 -8 5 -9 3 -3 -7 8 -14 10 -23 13 -73 1 -32 31 -38
54 -12 13 14 16 28 11 54 -5 24 -2 37 7 43 10 6 11 9 2 9 -8 0 -13 13 -13 33
0 40 13 62 31 52 8 -5 11 -5 7 0 -10 11 50 47 64 39 6 -4 9 -3 6 2 -7 10 11
27 32 32 8 2 17 8 18 13 2 5 29 -16 59 -48 66 -68 73 -63 75 54 1 69 4 81 26
105 14 16 30 28 35 28 5 0 18 9 28 21 11 13 23 18 31 13 7 -4 10 -4 6 0 -7 9
67 86 82 86 6 0 10 7 10 16 0 8 4 13 8 10 5 -3 24 13 42 36 46 55 60 68 72 68
6 0 9 3 5 6 -3 3 5 16 19 29 13 12 24 27 24 33 0 6 5 14 12 18 7 5 8 3 3 -6
-5 -9 -4 -11 3 -6 7 4 12 14 12 22 0 8 7 14 16 14 9 0 14 5 12 12 -2 6 5 21
16 33 31 33 81 109 78 117 -1 5 1 8 6 8 4 0 18 18 32 39 13 22 27 38 31 35 4
-2 11 1 15 7 4 8 3 9 -4 5 -18 -11 -14 6 8 34 11 14 20 31 20 38 0 7 5 10 12
6 7 -5 8 -3 3 6 -9 15 14 32 30 22 6 -4 4 0 -5 8 -15 14 -15 17 2 34 9 10 15
23 12 27 -3 5 0 9 6 9 6 0 8 4 5 10 -3 5 -1 10 5 10 6 0 8 4 5 10 -3 5 -1 10
4 10 6 0 10 3 9 8 -1 4 3 16 9 27 6 11 12 23 13 27 10 41 13 48 20 48 5 0 7 8
5 18 -1 9 4 25 13 35 8 9 12 17 9 17 -3 0 -1 13 4 30 6 16 14 28 19 25 4 -2 5
7 2 20 -2 14 0 25 6 25 6 0 9 9 7 20 -2 11 1 20 7 20 5 0 8 7 5 15 -4 8 -2 17
4 20 5 4 9 12 8 18 -3 24 1 38 10 33 5 -4 7 8 4 25 -3 19 -1 29 6 25 5 -4 13
-2 16 4 4 6 3 10 -2 9 -19 -3 -23 2 -11 15 7 7 13 32 13 55 0 26 4 40 10 37
10 -3 13 44 5 64 -1 3 -1 10 0 15 1 6 5 26 7 45 3 19 10 38 15 41 5 3 2 9 -7
13 -13 5 -15 9 -6 20 6 7 8 16 4 19 -3 4 -1 7 6 7 7 0 9 5 5 12 -11 17 -12 48
-3 48 4 0 11 -9 14 -21 4 -11 9 -18 12 -15 3 3 -1 16 -9 28 -21 34 -29 58 -18
58 6 0 10 -6 10 -14 0 -8 4 -17 9 -20 5 -4 7 3 4 14 -4 16 -2 19 13 14 15 -5
16 -4 4 4 -8 6 -17 9 -21 6 -4 -2 -13 4 -20 13 -12 15 -12 16 5 10 18 -7 18
-6 2 18 -17 26 -9 34 13 13 7 -7 2 5 -10 27 -20 36 -21 38 -3 23 14 -12 23
-14 34 -7 13 9 12 10 -2 5 -12 -3 -22 2 -29 16 -8 15 -8 18 0 14 6 -4 11 -3
11 2 0 6 -8 13 -17 16 -12 5 -14 9 -5 18 13 13 16 32 4 24 -4 -2 -8 4 -9 14
-1 11 2 22 8 25 5 4 9 11 9 16 0 6 -5 7 -12 3 -7 -5 -9 -2 -5 8 3 9 0 21 -6
28 -9 10 -9 11 1 6 6 -4 12 -2 12 3 0 6 -5 11 -12 11 -6 0 -3 7 8 15 11 9 13
13 4 10 -12 -4 -15 2 -15 27 3 70 3 72 23 57 15 -12 16 -12 5 2 -7 9 -10 19
-6 22 3 4 1 7 -5 7 -6 0 -14 -9 -17 -20 -3 -11 -11 -20 -17 -20 -7 0 -7 4 1
13 6 8 8 17 4 21 -4 4 -6 23 -4 43 2 26 -1 33 -10 28 -7 -5 -10 -4 -5 3 3 6 2
13 -3 16 -5 4 -8 18 -5 31 3 15 0 25 -7 25 -7 0 -9 3 -6 6 4 4 14 1 22 -6 13
-10 13 -15 3 -21 -8 -5 -5 -8 9 -6 l23 1 -21 22 c-12 13 -18 27 -15 33 4 5 1
13 -5 17 -7 4 -9 3 -5 -4 3 -6 1 -14 -5 -18 -9 -5 -10 0 -6 15 3 12 -1 27 -8
35 -15 15 -9 59 7 50 5 -3 4 -12 -3 -20 -10 -12 -9 -13 5 -8 18 7 19 13 7 33
-8 13 -12 13 -28 1 -10 -8 -15 -11 -11 -6 4 5 3 18 -3 29 -6 10 -7 17 -2 14
11 -7 23 1 43 28 14 18 13 19 -1 8 -9 -7 -20 -9 -24 -5 -5 4 -5 1 -1 -5 4 -8
1 -13 -8 -13 -9 0 -17 5 -17 10 -1 6 -2 16 -3 23 -1 6 -7 11 -14 10 -6 -2 -9
4 -6 11 3 8 0 24 -6 36 -9 18 -9 21 0 15 8 -5 11 -3 8 6 -3 8 -11 13 -17 11
-7 -1 -10 2 -7 7 4 5 0 12 -6 14 -9 4 -10 6 -1 6 6 1 15 -3 18 -9 3 -5 14 -10
23 -9 12 0 10 3 -7 10 -19 8 -21 12 -11 24 13 16 7 30 -12 30 -6 0 -13 6 -16
14 -3 8 0 11 7 7 6 -4 11 -2 11 3 0 14 -17 14 -25 1 -9 -14 14 -42 27 -33 6 3
9 0 6 -7 -6 -18 -29 -26 -26 -8 2 7 -4 12 -12 10 -8 -2 -12 0 -8 3 4 4 3 17
-3 28 -8 15 -8 18 1 12 9 -5 10 -1 5 16 -7 20 -5 22 6 13 8 -6 22 -11 31 -11
23 0 12 12 -10 12 -9 0 -16 6 -14 13 1 8 -2 11 -8 7 -10 -6 -14 7 -11 33 2 15
-15 16 -25 0 -4 -6 -3 -8 4 -4 6 3 9 -1 8 -11 -2 -10 2 -21 8 -25 8 -5 7 -8
-2 -8 -8 0 -10 -5 -6 -12 4 -8 3 -10 -2 -5 -5 5 -10 13 -10 18 -1 5 -2 10 -4
12 -8 10 -7 44 2 54 13 17 -4 17 -22 1 -11 -10 -11 -9 0 6 14 18 13 18 -10 12
-17 -5 -21 -4 -11 2 9 6 10 12 3 16 -6 4 -8 14 -5 23 4 10 2 14 -5 9 -6 -3
-13 -2 -16 3 -4 5 -2 12 3 15 5 4 12 2 16 -4 4 -6 11 -7 17 -4 8 5 9 1 5 -12
-7 -18 -7 -18 8 0 8 11 15 25 15 30 0 8 -3 8 -8 1 -10 -15 -31 -13 -42 5 -5 9
-5 19 2 27 6 8 8 16 4 20 -3 3 -6 1 -6 -5 0 -7 -5 -12 -10 -12 -6 0 -9 10 -7
23 2 12 2 16 0 9 -3 -7 -9 -10 -14 -7 -5 4 -5 13 1 25 8 15 6 17 -13 13 -16
-3 -18 -2 -9 5 11 7 10 11 -4 16 -16 6 -16 8 2 22 18 15 18 15 -1 5 -28 -13
-29 -46 -2 -59 14 -7 17 -11 7 -11 -13 -1 -13 -2 0 -12 13 -9 13 -10 0 -6 -19
5 -61 78 -55 94 2 7 0 15 -5 18 -6 4 -10 1 -10 -5 0 -6 -5 -8 -11 -4 -8 4 -7
9 2 15 13 8 12 10 -10 13 -5 0 -19 13 -31 28 -17 23 -18 27 -4 21 15 -6 15 -4
-1 20 -19 30 -30 36 -21 11 6 -15 4 -15 -10 -3 -9 7 -12 15 -6 17 13 4 4 32
-10 32 -5 0 -6 -5 -2 -12 4 -7 3 -8 -4 -4 -6 4 -8 14 -5 24 6 15 5 16 -13 2
-18 -14 -18 -14 -5 3 8 9 11 21 7 24 -4 4 -12 1 -17 -7 -8 -11 -9 -9 -4 9 5
15 3 21 -3 17 -6 -3 -14 -1 -18 6 -4 7 -4 10 1 6 4 -4 14 -3 22 4 8 6 13 7 11
2 -5 -15 64 -104 75 -97 6 4 7 1 2 -7 -5 -9 -4 -11 3 -6 8 5 10 1 6 -11 -5
-15 -4 -16 5 -3 10 13 11 12 9 -5 -2 -12 2 -19 10 -17 8 1 11 -2 7 -8 -3 -6
-11 -8 -16 -5 -5 4 -9 1 -9 -5 0 -7 7 -9 16 -6 10 4 13 2 8 -6 -5 -7 -3 -8 6
-3 9 6 11 4 5 -5 -6 -9 -4 -11 5 -5 8 5 11 4 6 -3 -3 -6 4 -18 16 -26 26 -18
38 -20 38 -6 0 6 -3 9 -7 9 -19 -3 -36 2 -30 8 4 3 -1 15 -10 26 -17 19 -17
19 7 13 22 -7 21 -5 -7 13 -17 11 -34 28 -37 39 -4 10 -17 25 -31 32 -13 7
-23 18 -22 24 1 6 -4 10 -11 8 -9 -2 -12 4 -7 17 4 13 -1 24 -15 34 -11 7 -17
18 -12 23 4 4 0 3 -9 -4 -13 -10 -22 -10 -43 -1 -14 7 -26 17 -26 23 0 6 -4 5
-9 -2 -6 -11 -10 -10 -15 4 -4 10 -4 15 0 11 4 -4 14 -1 22 6 13 10 14 9 7 -2
-6 -10 -4 -12 5 -6 9 6 11 4 5 -5 -6 -9 -4 -11 5 -5 8 5 11 4 7 -2 -4 -6 0
-13 8 -17 8 -3 17 0 21 6 4 7 3 8 -4 4 -11 -7 -16 5 -13 31 1 6 -3 14 -9 18
-6 4 -7 -1 -3 -12 5 -16 4 -16 -14 2 -11 11 -19 23 -17 27 3 4 -5 13 -16 21
-11 7 -17 17 -12 22 4 5 2 5 -4 2 -13 -7 -45 28 -36 39 4 5 -1 2 -10 -5 -20
-15 -24 -26 -6 -15 7 5 8 3 3 -6 -6 -9 -4 -11 5 -5 9 6 11 4 5 -5 -6 -9 -4
-11 5 -5 9 6 11 4 5 -5 -6 -9 -4 -11 5 -5 9 6 11 4 5 -5 -5 -9 -4 -11 3 -6 7
4 12 4 13 -1 0 -4 2 -18 5 -30 2 -13 -1 -23 -7 -23 -5 0 -7 5 -4 10 6 9 -8 15
-29 11 -5 -1 -4 4 2 12 10 11 9 17 -5 28 -15 12 -16 12 -10 -4 4 -11 3 -16 -4
-12 -6 4 -8 13 -5 21 5 13 -26 38 -36 28 -3 -2 -11 2 -18 11 -7 9 -8 15 -2 15
16 0 7 48 -14 71 -16 17 -16 22 -4 30 13 9 13 10 0 6 -8 -2 -15 -10 -14 -18 0
-8 -8 -22 -18 -31 -20 -20 -26 -10 -6 10 7 7 8 12 2 12 -5 0 -15 -5 -22 -12
-9 -9 -12 -9 -12 1 0 7 -4 10 -8 7 -5 -3 -9 2 -9 10 0 10 4 11 11 4 15 -15 30
-12 17 4 -6 7 -9 20 -6 27 3 8 0 21 -5 29 -8 13 -11 13 -27 -2 -11 -11 -13
-18 -5 -18 7 0 12 5 12 12 0 9 3 9 11 1 18 -18 1 -35 -22 -23 -11 7 -19 7 -19
1 0 -5 6 -12 13 -14 9 -4 9 -6 0 -6 -10 -1 -40 39 -35 47 1 1 2 5 2 10 0 4 -4
0 -10 -8 -5 -8 -12 -11 -17 -7 -4 5 -1 12 7 17 8 5 11 12 7 16 -3 4 -13 1 -21
-6 -9 -6 -21 -10 -28 -7 -8 3 -6 6 5 6 10 1 15 6 12 11 -4 6 -16 8 -28 5 -12
-2 -16 -2 -9 1 9 4 3 13 -19 26 -23 14 -29 22 -20 28 9 5 10 10 3 14 -6 3 -13
2 -17 -4 -3 -5 -11 -10 -18 -10 -6 0 -2 6 8 14 11 8 24 12 30 8 5 -3 4 1 -3
10 -9 11 -10 18 -2 23 5 3 10 11 10 18 0 6 -6 2 -14 -8 -8 -11 -12 -23 -10
-26 2 -4 -3 -10 -12 -13 -12 -5 -15 -2 -10 10 4 9 1 22 -5 30 -7 9 -7 19 1 36
10 21 10 21 -3 6 -8 -10 -17 -15 -21 -11 -4 4 -4 0 -1 -9 5 -13 2 -15 -15 -11
-20 5 -20 7 -4 24 10 11 14 22 10 26 -10 11 -37 12 -30 2 3 -5 10 -7 15 -4 5
4 9 2 9 -4 0 -17 -22 -24 -31 -10 -4 7 -11 10 -15 6 -12 -12 -13 -37 -2 -37 6
0 7 8 4 18 -3 9 3 5 15 -11 11 -15 25 -25 29 -22 5 3 11 1 15 -5 4 -6 12 -7
18 -4 7 4 2 -3 -10 -15 -12 -11 -26 -21 -30 -21 -4 0 -2 5 5 12 20 20 13 32
-8 13 -11 -10 -20 -13 -20 -7 0 7 5 12 11 12 5 0 8 4 5 9 -3 4 -17 7 -31 6
-14 -2 -23 0 -20 5 3 5 0 10 -6 12 -8 3 -7 13 5 35 19 39 20 40 2 40 -7 0 -11
-7 -9 -17 6 -23 -22 -44 -42 -33 -15 9 -15 11 0 23 13 11 15 10 9 -4 -3 -9 -1
-16 6 -16 6 0 8 5 4 12 -4 7 -3 8 4 4 8 -5 10 -2 6 8 -8 21 -16 20 -47 -4
l-26 -21 4 22 c5 25 15 38 15 19 0 -9 7 -7 21 6 12 10 23 17 24 14 2 -3 6 -2
10 2 4 3 -1 5 -12 3 -10 -2 -18 -4 -18 -6 0 -1 -10 -3 -23 -4 -19 -2 -21 1
-17 19 5 17 4 18 -4 6 -8 -11 -11 -12 -11 -2 0 7 -4 10 -10 7 -5 -3 -10 2 -10
12 -1 17 -1 17 -11 0 -5 -9 -8 -21 -5 -26 4 -5 3 -17 0 -26 -6 -15 -9 -14 -20
6 -10 20 -10 27 3 42 20 21 8 23 -13 2 -9 -8 -20 -15 -27 -15 -6 0 -2 6 9 14
18 14 18 15 -4 13 -12 -1 -25 -10 -28 -21 -6 -18 -7 -18 -20 5 -7 13 -13 18
-14 12 0 -7 -4 -13 -10 -13 -5 0 -7 6 -4 14 3 8 15 14 27 14 12 0 31 0 42 1
18 1 17 3 -5 15 -14 7 -29 9 -35 4 -16 -14 -28 -9 -15 7 7 9 10 18 7 21 -5 5
-24 -22 -26 -38 -1 -9 -1 -9 -31 -1 -11 3 -20 10 -20 15 0 5 -5 6 -10 3 -6 -4
-7 -12 -4 -18 5 -9 4 -9 -6 0 -7 6 -18 9 -25 7 -7 -3 -16 -1 -20 5 -4 7 1 9
12 5 13 -4 11 0 -7 16 -22 20 -25 20 -36 5 -8 -11 -14 -12 -19 -5 -3 5 -11 8
-16 4 -5 -3 -8 0 -7 7 2 6 -3 14 -11 17 -8 3 -11 0 -7 -7 4 -6 2 -11 -3 -11
-13 0 -13 3 -5 24 5 14 9 14 22 4 12 -10 16 -10 19 0 3 6 8 10 13 7 4 -3 13 2
20 10 9 10 9 15 1 15 -6 0 -11 -6 -11 -12 0 -9 -4 -8 -10 2 -7 11 -10 11 -10
2 0 -7 -5 -10 -10 -7 -7 4 -7 12 0 25 7 13 7 21 -2 26 -6 4 -8 3 -5 -3 4 -6
-2 -22 -13 -34 -11 -13 -19 -19 -20 -14 0 6 6 17 13 24 10 10 8 11 -6 5 -12
-4 -17 -14 -14 -25 6 -24 -14 -41 -33 -29 -11 7 -17 4 -22 -8 -6 -14 -7 -15
-7 -1 -1 9 9 24 21 35 15 13 18 14 10 3 -10 -14 -10 -18 2 -22 9 -4 18 -2 21
3 4 6 2 10 -4 10 -11 0 -9 19 4 40 7 13 6 13 -7 2 -14 -11 -18 -10 -27 5 -6
10 -11 13 -11 8 0 -6 5 -16 12 -23 8 -8 8 -12 1 -12 -18 0 -34 26 -28 46 4 12
2 11 -6 -3 -7 -13 -19 -23 -27 -23 -12 0 -11 4 4 22 19 22 19 23 -1 8 -11 -8
-23 -19 -27 -24 -3 -5 -13 -2 -22 6 -8 9 -12 19 -8 24 4 5 0 3 -8 -3 -23 -17
-30 -16 -49 6 -10 12 -22 21 -27 21 -4 0 -3 -5 4 -12 17 -17 15 -33 -3 -18 -8
7 -15 9 -15 5 0 -4 -7 -2 -15 5 -9 7 -14 19 -11 27 4 8 1 11 -5 8 -6 -4 -8
-13 -5 -21 4 -9 -1 -13 -13 -11 -29 4 -50 27 -44 45 4 14 3 15 -5 2 -7 -9 -7
-19 -2 -25 6 -7 5 -17 -3 -25 -10 -12 -9 -12 5 -2 11 9 18 10 23 2 3 -6 11 -7
17 -4 7 4 8 2 4 -5 -9 -13 15 -11 25 3 4 4 9 4 12 0 3 -5 -7 -18 -22 -28 -14
-11 -23 -16 -19 -11 11 11 -11 35 -31 35 -13 -1 -13 -3 3 -15 11 -8 17 -17 14
-21 -3 -3 -18 7 -33 23 -18 18 -25 22 -21 11 17 -47 18 -53 5 -33 -6 11 -13
22 -15 24 -2 2 -11 -2 -21 -10 -9 -8 -14 -9 -10 -3 10 17 -16 35 -33 24 -19
-12 -30 -12 -30 -2 0 5 6 9 13 10 24 1 60 11 66 18 3 4 -2 4 -12 1 -11 -4 -20
-1 -23 8 -4 8 -10 12 -15 9 -5 -3 -24 -7 -41 -10 -24 -3 -29 -1 -20 8 7 7 12
17 12 22 0 6 -7 0 -16 -12 -15 -22 -17 -22 -42 -6 -15 9 -21 11 -14 3 19 -21
14 -34 -6 -16 -10 10 -22 14 -27 10 -4 -5 -5 0 -2 10 4 9 2 17 -3 17 -5 0 -10
-8 -12 -17z m-123 -27 c16 -11 21 -11 33 0 14 15 32 10 32 -8 0 -5 -7 -8 -15
-5 -8 4 -17 2 -20 -3 -4 -6 -1 -10 4 -10 6 0 11 -7 11 -16 0 -13 -4 -12 -17 5
-17 20 -19 21 -38 6 -20 -16 -19 -16 5 -11 14 3 19 3 12 0 -6 -3 -10 -9 -8
-13 3 -4 -4 -7 -14 -7 -17 0 -21 18 -7 32 4 4 7 14 7 22 0 9 -9 3 -22 -14 -13
-16 -22 -32 -20 -37 1 -5 -2 -6 -8 -2 -6 3 -7 11 -4 17 5 7 2 9 -7 6 -9 -4
-14 2 -15 19 -2 19 2 22 16 18 10 -3 21 -1 25 5 9 14 28 13 50 -4z m165 -5 c5
-9 13 -10 21 -5 18 10 79 14 79 4 0 -15 -29 -32 -42 -24 -19 12 -38 13 -38 3
0 -6 -5 -7 -11 -4 -6 4 -13 -3 -16 -15 l-6 -21 -11 22 c-6 12 -18 25 -26 27
-11 4 -9 -2 5 -19 l20 -24 -21 18 c-25 21 -29 21 -48 1 -9 -8 -16 -11 -16 -5
0 5 6 14 14 18 8 4 16 13 18 18 2 6 8 10 15 10 6 0 14 3 18 7 10 10 36 3 45
-11z m-316 -6 c11 -8 14 -15 7 -15 -7 0 -9 -5 -5 -12 5 -9 2 -9 -9 1 -10 8
-17 9 -17 3 0 -6 5 -14 10 -17 6 -3 10 -11 10 -18 0 -6 -7 -1 -17 12 -15 23
-17 23 -30 6 -7 -11 -13 -14 -13 -8 0 6 12 21 28 32 17 13 20 19 8 14 -13 -4
-17 -3 -12 5 9 15 17 15 40 -3z m41 -21 c-8 -6 -12 -14 -8 -17 3 -4 1 -7 -5
-7 -15 0 -15 3 0 35 8 18 14 22 20 13 4 -8 2 -17 -7 -24z m415 32 c0 -2 -7 -6
-15 -10 -8 -3 -15 -1 -15 4 0 6 7 10 15 10 8 0 15 -2 15 -4z m246 -41 c17 0
38 -6 47 -13 9 -8 21 -11 26 -7 7 4 8 0 4 -11 -6 -15 -4 -15 19 0 21 14 27 14
37 3 8 -11 8 -17 -1 -24 -25 -19 -38 -24 -38 -14 0 6 8 11 17 11 14 0 15 2 4
13 -10 10 -17 7 -33 -13 -13 -15 -19 -18 -15 -8 3 10 2 20 -3 23 -6 4 -10 -1
-10 -9 0 -20 -11 -25 -35 -15 -18 8 -18 9 3 5 17 -3 22 -1 18 10 -3 8 -1 14 5
14 6 0 7 5 4 11 -5 7 -13 5 -24 -5 -10 -9 -21 -16 -26 -16 -5 0 0 7 11 15 15
11 16 14 4 15 -9 0 -22 -6 -29 -12 -11 -11 -12 -10 -6 1 6 11 4 13 -8 8 -9 -3
-19 -1 -23 5 -4 5 -9 6 -13 2 -3 -5 -15 -16 -26 -24 -11 -8 -7 0 9 18 16 17
34 28 40 24 6 -3 25 -6 42 -7z m-344 -2 c-6 -2 -9 -10 -6 -15 4 -7 2 -8 -5 -4
-13 9 -5 26 12 25 9 0 8 -2 -1 -6z m111 -13 c3 -11 3 -20 1 -20 -2 0 -8 9 -14
20 -6 11 -7 20 -2 20 6 0 12 -9 15 -20z m-218 0 c3 -5 1 -10 -4 -10 -6 0 -11
5 -11 10 0 6 2 10 4 10 3 0 8 -4 11 -10z m179 1 c4 -5 -3 -7 -14 -4 -23 6 -26
13 -6 13 8 0 17 -4 20 -9z m-739 -11 c4 -6 1 -9 -7 -8 -7 2 -12 -4 -10 -14 1
-9 -3 -20 -9 -24 -9 -5 -10 -2 -6 10 5 12 3 16 -5 14 -7 -3 -14 -15 -14 -27
-1 -12 -5 -25 -9 -29 -5 -4 -5 1 -2 10 4 12 -1 19 -15 24 -17 5 -18 8 -7 14 8
5 19 9 24 10 6 1 19 9 30 16 23 17 22 17 30 4z m239 -6 c3 -8 2 -12 -4 -9 -6
3 -10 10 -10 16 0 14 7 11 14 -7z m41 6 c3 -5 1 -10 -4 -10 -6 0 -11 5 -11 10
0 6 2 10 4 10 3 0 8 -4 11 -10z m540 0 c3 -5 1 -10 -4 -10 -6 0 -11 5 -11 10
0 6 2 10 4 10 3 0 8 -4 11 -10z m145 -18 c0 -5 -7 -9 -15 -9 -8 0 -12 4 -9 9
3 4 9 8 15 8 5 0 9 -4 9 -8z m-893 -19 c-9 -2 -14 -9 -11 -15 4 -7 2 -8 -5 -4
-15 10 -4 26 17 25 15 -1 15 -2 -1 -6z m-185 -15 c-9 -9 -7 -14 5 -23 13 -10
13 -14 3 -20 -8 -5 -11 -4 -7 2 4 6 0 13 -8 17 -8 3 -15 0 -15 -7 0 -7 -5 -4
-11 6 -6 10 -8 21 -5 24 3 4 6 1 6 -6 0 -8 5 -7 16 3 8 9 18 16 22 16 3 0 1
-5 -6 -12z m33 -8 c3 -5 1 -10 -4 -10 -6 0 -11 5 -11 10 0 6 2 10 4 10 3 0 8
-4 11 -10z m85 6 c0 -2 -7 -7 -16 -10 -8 -3 -12 -2 -9 4 6 10 25 14 25 6z
m1300 -41 c0 -8 -4 -15 -10 -15 -5 0 -7 7 -4 15 4 8 8 15 10 15 2 0 4 -7 4
-15z m184 -13 c3 -5 -1 -9 -9 -9 -8 0 -12 4 -9 9 3 4 7 8 9 8 2 0 6 -4 9 -8z
m-64 -37 c0 -2 -7 -1 -17 2 -12 5 -14 3 -8 -8 5 -8 4 -11 0 -6 -5 4 -10 14
-11 22 -2 12 2 12 17 5 10 -6 19 -13 19 -15z m184 -40 c3 -8 0 -17 -6 -21 -7
-4 -8 -3 -4 4 4 7 3 12 -2 12 -6 0 -12 7 -15 14 -4 10 -1 13 8 10 7 -3 16 -12
19 -19z m-94 5 c-20 -13 -33 -13 -25 0 3 6 14 10 23 10 15 0 15 -2 2 -10z
m-2035 -28 c-2 -2 -5 -2 -8 0 -2 2 -12 -4 -23 -12 -17 -14 -18 -14 -6 2 8 9
11 22 7 28 -4 7 1 6 13 -1 12 -7 19 -15 17 -17z m2060 8 c3 -6 -1 -7 -9 -4
-18 7 -21 14 -7 14 6 0 13 -4 16 -10z m42 -22 c-3 -8 -6 -5 -6 6 -1 11 2 17 5
13 3 -3 4 -12 1 -19z m-2213 -67 c3 -29 2 -31 -14 -16 -9 8 -20 12 -25 8 -9
-9 3 16 18 35 13 16 16 12 21 -27z m2286 33 c0 -8 -19 -13 -24 -6 -3 5 1 9 9
9 8 0 15 -2 15 -3z m-2240 -44 c-18 -12 -30 -13 -30 -2 0 4 10 9 22 9 18 2 20
0 8 -7z m-60 -25 c11 -13 10 -14 -4 -9 -9 3 -16 10 -16 15 0 13 6 11 20 -6z
m2447 -17 c-3 -8 -6 -5 -6 6 -1 11 2 17 5 13 3 -3 4 -12 1 -19z m-2672 -110
c0 -6 6 -13 14 -16 8 -3 11 0 7 7 -4 6 -2 11 3 11 14 0 14 -17 0 -26 -6 -3
-16 -1 -22 5 -6 6 -18 11 -26 11 -14 -1 -13 -3 2 -14 17 -13 24 -32 8 -22 -5
4 -11 3 -14 -1 -2 -5 -2 -2 -1 5 2 6 -3 12 -11 12 -11 0 -12 -6 -5 -25 7 -19
6 -23 -5 -19 -7 3 -11 13 -8 22 4 15 3 15 -6 2 -6 -8 -8 -23 -5 -32 3 -10 0
-18 -6 -18 -6 0 -8 5 -4 12 5 8 -3 9 -30 5 l-37 -6 38 26 c21 14 51 38 67 54
28 28 41 30 41 7z m2999 -109 c-11 -18 -25 -8 -19 14 5 20 5 20 -9 -3 -18 -29
-21 -19 -5 12 11 21 12 21 25 3 7 -10 11 -22 8 -26z m-3117 -31 c-3 -8 -6 -5
-6 6 -1 11 2 17 5 13 3 -3 4 -12 1 -19z m-17 -22 c0 -2 -8 -10 -17 -17 -16
-13 -17 -12 -4 4 13 16 21 21 21 13z m3268 -59 c-1 -2 3 -11 11 -20 9 -11 10
-17 2 -17 -6 0 -11 3 -12 8 0 4 -2 15 -4 25 -2 11 -1 17 2 14 2 -3 3 -7 1 -10z
m40 -112 c-3 -3 -9 2 -12 12 -6 14 -5 15 5 6 7 -7 10 -15 7 -18z m77 -6 c11
-17 -1 -21 -15 -4 -8 9 -8 15 -2 15 6 0 14 -5 17 -11z m-3732 -213 c4 -10 0
-14 -14 -11 -10 2 -19 -1 -19 -7 0 -6 -3 -8 -6 -5 -8 7 14 37 26 37 4 0 10 -6
13 -14z m-70 -93 c-7 -3 -13 -9 -13 -14 0 -6 5 -7 12 -3 7 4 2 -6 -10 -23 -12
-17 -18 -34 -14 -38 4 -5 1 -5 -5 -1 -7 4 -14 2 -14 -3 -1 -6 -2 -15 -3 -21
-2 -16 -20 -7 -23 12 -1 9 12 29 30 44 27 23 28 26 9 20 -21 -7 -22 -6 -12 11
7 10 22 19 34 20 11 1 15 -1 9 -4z m4006 -40 c8 -16 8 -24 -1 -29 -7 -4 -8 -3
-4 4 4 7 2 12 -4 12 -6 0 -8 5 -5 10 3 6 -2 10 -12 10 -15 0 -16 2 -3 10 8 5
15 8 16 7 1 -1 6 -12 13 -24z m-4209 -414 c0 -5 -4 -9 -8 -9 -5 0 -9 7 -9 15
0 8 4 12 9 9 4 -3 8 -9 8 -15z m0 -23 c0 -2 -7 -6 -15 -10 -8 -3 -15 -1 -15 4
0 6 7 10 15 10 8 0 15 -2 15 -4z m3507 -2651 c0 -8 -4 -12 -9 -9 -4 3 -8 9 -8
15 0 5 4 9 8 9 5 0 9 -7 9 -15z"/>
<path d="M2420 4921 c0 -9 -8 -11 -21 -8 -17 5 -18 3 -8 -9 11 -13 14 -13 28
0 8 9 12 19 8 22 -4 4 -7 2 -7 -5z"/>
<path d="M2590 4924 c0 -3 6 -12 14 -20 15 -15 30 -5 18 11 -8 11 -32 18 -32
9z"/>
<path d="M2690 4906 c7 -7 13 -7 20 0 6 6 3 10 -10 10 -13 0 -16 -4 -10 -10z"/>
<path d="M535 3700 c-10 -11 -16 -22 -14 -24 2 -2 12 7 22 20 22 29 17 32 -8
4z"/>
<path d="M2735 4960 c-3 -5 -1 -10 4 -10 6 0 11 5 11 10 0 6 -2 10 -4 10 -3 0
-8 -4 -11 -10z"/>
<path d="M2807 4953 c3 -7 6 -13 8 -13 2 0 5 6 8 13 3 8 -1 14 -8 14 -7 0 -11
-6 -8 -14z"/>
<path d="M2075 4941 c-3 -5 -2 -12 3 -15 5 -3 9 1 9 9 0 17 -3 19 -12 6z"/>
<path d="M2003 4922 c10 -10 14 -22 10 -27 -5 -4 -2 -5 5 -1 11 6 10 12 -4 27
-9 10 -19 19 -22 19 -3 0 2 -8 11 -18z"/>
<path d="M2820 4920 c0 -5 -7 -10 -16 -10 -8 0 -12 -5 -9 -11 5 -7 13 -5 24 5
10 9 21 13 24 9 4 -3 7 -1 7 5 0 7 -7 12 -15 12 -8 0 -15 -4 -15 -10z"/>
<path d="M3017 4919 c7 -7 15 -10 18 -7 3 3 -2 9 -12 12 -14 6 -15 5 -6 -5z"/>
<path d="M3070 4915 c0 -8 4 -15 8 -15 5 0 9 7 9 15 0 8 -4 15 -9 15 -4 0 -8
-7 -8 -15z"/>
<path d="M3176 4897 c3 -10 9 -15 12 -12 3 3 0 11 -7 18 -10 9 -11 8 -5 -6z"/>
<path d="M3220 4900 c-9 -6 -10 -10 -3 -10 6 0 15 5 18 10 8 12 4 12 -15 0z"/>
<path d="M1912 4879 c-19 -7 -23 -29 -6 -29 3 0 2 5 -2 12 -5 7 -2 9 9 5 9 -3
18 0 21 9 3 8 4 14 3 13 -1 0 -12 -4 -25 -10z"/>
<path d="M3330 4861 c0 -6 4 -13 10 -16 6 -3 7 1 4 9 -7 18 -14 21 -14 7z"/>
<path d="M1716 4847 c3 -10 9 -15 12 -12 3 3 0 11 -7 18 -10 9 -11 8 -5 -6z"/>
<path d="M1839 4848 c7 -10 17 -18 22 -18 5 0 9 8 8 18 0 11 -2 12 -6 4 -4
-10 -8 -10 -21 0 -15 12 -16 11 -3 -4z"/>
<path d="M1790 4839 c0 -5 5 -7 10 -4 6 3 10 8 10 11 0 2 -4 4 -10 4 -5 0 -10
-5 -10 -11z"/>
<path d="M1755 4830 c3 -5 8 -10 11 -10 2 0 4 5 4 10 0 6 -5 10 -11 10 -5 0
-7 -4 -4 -10z"/>
<path d="M1796 4820 c-24 -15 -33 -17 -45 -7 -11 9 -13 9 -8 0 5 -7 -1 -16
-13 -23 -11 -6 -20 -8 -20 -4 0 3 -6 2 -13 -5 -10 -8 -17 -7 -26 2 -10 9 -11
8 -5 -7 6 -15 4 -17 -7 -11 -12 8 -12 6 -1 -8 8 -9 10 -22 6 -29 -4 -7 4 -3
17 8 13 12 29 20 35 17 6 -2 15 7 21 20 6 13 19 24 28 24 16 0 16 -1 -1 -14
-10 -7 -16 -14 -13 -14 27 -8 47 -2 62 17 11 15 13 24 6 24 -8 0 -8 4 1 15 16
19 12 18 -24 -5z m14 -20 c0 -5 -9 -14 -20 -20 -19 -10 -20 -10 -8 9 13 22 28
28 28 11z m-86 -32 c-3 -5 -9 -6 -14 -3 -5 3 -11 1 -15 -5 -3 -5 -11 -10 -18
-10 -6 0 -3 6 7 13 21 15 48 18 40 5z"/>
<path d="M3310 4825 c-7 -8 -19 -15 -26 -15 -8 0 -14 -4 -14 -10 0 -13 13 -13
27 1 7 7 19 2 41 -16 l31 -26 11 22 c7 13 8 19 2 15 -6 -3 -17 3 -25 15 -9 13
-17 16 -22 10 -3 -6 -11 -11 -17 -11 -7 0 -6 6 2 15 7 8 10 15 7 15 -2 0 -10
-7 -17 -15z m50 -30 c7 -8 8 -15 2 -15 -5 0 -15 7 -22 15 -7 8 -8 15 -2 15 5
0 15 -7 22 -15z"/>
<path d="M3414 4822 c4 -7 2 -12 -5 -12 -7 0 -9 -3 -6 -7 4 -3 2 -12 -4 -19
-7 -8 -7 -14 1 -19 5 -3 10 -3 10 1 0 4 7 -1 16 -12 8 -10 13 -13 9 -7 -3 7
-1 23 5 35 10 21 10 21 -3 6 -17 -22 -30 -12 -17 13 7 12 6 20 -2 25 -7 4 -8
3 -4 -4z"/>
<path d="M3496 4778 c3 -5 10 -6 15 -3 13 9 11 12 -6 12 -8 0 -12 -4 -9 -9z"/>
<path d="M3535 4770 c2 -12 7 -25 10 -28 3 -3 4 4 2 16 -2 12 -6 24 -10 28 -3
4 -4 -4 -2 -16z"/>
<path d="M3556 4687 c3 -10 9 -15 12 -12 3 3 0 11 -7 18 -10 9 -11 8 -5 -6z"/>
<path d="M1560 4680 c-8 -5 -10 -10 -5 -10 6 0 17 5 25 10 8 5 11 10 5 10 -5
0 -17 -5 -25 -10z"/>
<path d="M1326 4642 c-3 -5 1 -9 9 -9 8 0 12 4 9 9 -3 4 -7 8 -9 8 -2 0 -6 -4
-9 -8z"/>
<path d="M3830 4590 c0 -5 5 -10 11 -10 5 0 7 5 4 10 -3 6 -8 10 -11 10 -2 0
-4 -4 -4 -10z"/>
<path d="M3879 4568 c-6 -22 -5 -78 2 -78 15 0 23 -4 42 -20 20 -17 49 -20 59
-5 11 14 10 25 -3 25 -5 0 -7 -4 -4 -10 4 -6 -6 -10 -22 -10 -22 0 -25 2 -13
10 11 7 11 10 2 10 -8 0 -10 5 -6 13 4 6 4 9 -1 5 -13 -12 -34 11 -28 30 4 15
3 15 -6 2 -9 -13 -11 -13 -12 0 -1 8 -1 18 0 23 1 6 -8 11 -10 5z m32 -65 c13
-15 17 -22 8 -15 -9 6 -18 9 -21 7 -3 -3 -8 3 -11 15 -7 26 -5 25 24 -7z"/>
<path d="M3934 4542 c3 -5 0 -13 -6 -15 -9 -4 -10 -6 -1 -6 17 -1 25 16 12 25
-7 4 -9 3 -5 -4z"/>
<path d="M1194 4532 c3 -5 0 -13 -6 -15 -8 -3 -6 -6 5 -6 19 -1 23 14 5 25 -6
4 -8 3 -4 -4z"/>
<path d="M3957 4523 c-10 -9 -9 -23 1 -23 5 0 9 7 9 15 0 17 -1 18 -10 8z"/>
<path d="M1135 4489 c-4 -6 -5 -12 -2 -15 2 -3 7 2 10 11 7 17 1 20 -8 4z"/>
<path d="M4030 4482 c0 -5 7 -9 15 -9 8 0 12 4 9 9 -3 4 -9 8 -15 8 -5 0 -9
-4 -9 -8z"/>
<path d="M3987 4445 c-4 -8 -2 -17 4 -20 5 -4 7 -11 4 -16 -14 -22 4 -6 20 17
9 15 12 23 6 20 -6 -4 -11 -2 -11 3 0 16 -17 13 -23 -4z"/>
<path d="M1170 4441 c0 -6 4 -13 10 -16 6 -3 7 1 4 9 -7 18 -14 21 -14 7z"/>
<path d="M4067 4419 c7 -7 15 -10 18 -7 3 3 -2 9 -12 12 -14 6 -15 5 -6 -5z"/>
<path d="M4106 4402 c-3 -5 1 -9 9 -9 8 0 15 4 15 9 0 4 -4 8 -9 8 -6 0 -12
-4 -15 -8z"/>
<path d="M970 4380 c0 -5 5 -10 11 -10 5 0 7 5 4 10 -3 6 -8 10 -11 10 -2 0
-4 -4 -4 -10z"/>
<path d="M4065 4381 c-6 -11 9 -23 19 -14 9 9 7 23 -3 23 -6 0 -12 -4 -16 -9z"/>
<path d="M4163 4343 c-15 -5 -17 -23 -4 -23 5 0 11 7 15 15 3 8 4 15 3 14 -1
0 -8 -3 -14 -6z"/>
<path d="M940 4302 c13 -26 -3 -57 -24 -45 -6 4 -5 -1 3 -10 14 -18 31 -12 57
23 13 15 8 40 -8 40 -5 0 -6 -4 -3 -10 10 -17 -7 -11 -22 8 -13 15 -13 15 -3
-6z m40 -15 c0 -2 -12 -14 -27 -28 l-28 -24 24 28 c23 25 31 32 31 24z"/>
<path d="M4160 4291 c-12 -13 -12 -14 1 -9 9 4 16 1 16 -7 0 -7 -6 -11 -14 -8
-7 3 -13 1 -13 -4 0 -10 40 -15 41 -5 5 41 4 49 -6 49 -6 0 -17 -7 -25 -16z"/>
<path d="M893 4275 c0 -7 8 -10 19 -7 10 2 18 6 18 7 0 1 -8 5 -18 7 -11 3
-19 0 -19 -7z"/>
<path d="M4238 4252 c4 -10 7 -12 10 -4 2 7 9 9 15 5 7 -3 8 -2 4 2 -14 16
-36 14 -29 -3z"/>
<path d="M4275 4231 c-3 -5 -2 -12 3 -15 5 -3 9 1 9 9 0 17 -3 19 -12 6z"/>
<path d="M875 4220 c3 -5 1 -10 -6 -10 -16 0 -5 -11 13 -14 7 -1 19 -5 26 -9
8 -5 12 -2 12 8 0 9 -5 13 -10 10 -6 -3 -13 1 -16 9 -3 9 -10 16 -16 16 -5 0
-6 -4 -3 -10z"/>
<path d="M4305 4199 c-4 -6 -5 -12 -2 -15 2 -3 7 2 10 11 7 17 1 20 -8 4z"/>
<path d="M4330 4177 c0 -2 6 -10 14 -16 11 -9 16 -9 22 1 4 7 4 10 -1 6 -4 -4
-14 -3 -22 3 -7 6 -13 9 -13 6z"/>
<path d="M799 4153 c-13 -17 -13 -17 6 -3 11 8 22 16 24 17 2 2 0 3 -6 3 -6 0
-17 -8 -24 -17z"/>
<path d="M860 4160 c0 -6 7 -10 15 -10 8 0 15 2 15 4 0 2 -7 6 -15 10 -8 3
-15 1 -15 -4z"/>
<path d="M773 4124 c0 -17 2 -22 7 -13 5 6 6 18 3 26 -8 19 -10 16 -10 -13z"/>
<path d="M4340 4136 c0 -2 7 -7 16 -10 8 -3 12 -2 9 4 -6 10 -25 14 -25 6z"/>
<path d="M754 4098 c3 -10 0 -18 -6 -18 -7 0 -3 -7 8 -15 18 -13 18 -14 1 -15
-13 0 -17 -5 -13 -18 7 -21 -20 -27 -41 -9 -9 6 -13 6 -13 -1 0 -6 6 -12 13
-15 8 -3 7 -10 -7 -23 -18 -18 -18 -18 -13 -1 4 11 3 16 -3 12 -6 -4 -9 -12
-8 -18 1 -7 -4 -23 -11 -36 -21 -37 2 -48 32 -15 14 15 24 31 21 36 -3 4 0 8
6 8 7 0 10 7 7 14 -4 9 -1 13 6 10 7 -2 18 5 25 16 9 15 9 20 0 20 -6 0 -3 7
8 15 10 8 15 15 9 15 -5 0 1 8 15 16 24 14 24 15 2 11 -14 -3 -26 1 -33 11
-10 15 -10 15 -5 0z m-41 -120 c-4 -7 -8 -16 -8 -20 0 -11 -45 -50 -45 -39 0
5 12 23 26 40 26 31 42 42 27 19z"/>
<path d="M713 4065 c0 -8 4 -15 9 -15 4 0 8 4 8 9 0 6 -4 12 -8 15 -5 3 -9 -1
-9 -9z"/>
<path d="M4410 4059 c0 -5 5 -7 10 -4 6 3 10 8 10 11 0 2 -4 4 -10 4 -5 0 -10
-5 -10 -11z"/>
<path d="M4437 4053 c-10 -9 -9 -33 1 -33 4 0 8 9 8 20 0 23 0 22 -9 13z"/>
<path d="M650 3999 c0 -5 5 -7 10 -4 6 3 10 8 10 11 0 2 -4 4 -10 4 -5 0 -10
-5 -10 -11z"/>
<path d="M640 3955 c-7 -9 -8 -15 -2 -15 5 0 12 7 16 15 3 8 4 15 2 15 -2 0
-9 -7 -16 -15z"/>
<path d="M594 3896 c4 -10 1 -26 -6 -35 -11 -14 -10 -14 6 0 15 14 16 20 6 35
-11 18 -11 18 -6 0z"/>
<path d="M4510 3840 c0 -5 5 -10 10 -10 6 0 10 5 10 10 0 6 -4 10 -10 10 -5 0
-10 -4 -10 -10z"/>
<path d="M535 3820 c-3 -5 -1 -10 4 -10 6 0 11 5 11 10 0 6 -2 10 -4 10 -3 0
-8 -4 -11 -10z"/>
<path d="M4576 3818 c3 -4 11 -5 19 -1 21 7 19 12 -4 10 -11 0 -18 -5 -15 -9z"/>
<path d="M4632 3745 c4 -4 3 -14 -4 -22 -6 -7 -9 -15 -7 -18 3 -2 10 4 17 15
9 15 9 21 -1 26 -6 4 -9 4 -5 -1z"/>
<path d="M470 3725 c0 -7 30 -13 34 -7 3 4 -4 9 -15 9 -10 1 -19 0 -19 -2z"/>
<path d="M429 3643 c-13 -16 -12 -17 4 -4 9 7 17 15 17 17 0 8 -8 3 -21 -13z"/>
<path d="M4630 3636 c4 -4 16 -4 26 2 16 9 14 10 -8 9 -15 -1 -23 -6 -18 -11z"/>
<path d="M443 3604 c19 -23 23 -39 5 -28 -7 5 -8 3 -3 -6 6 -10 4 -12 -7 -7
-10 3 -15 1 -13 -6 10 -40 18 -56 26 -51 5 3 7 10 4 15 -4 5 -1 9 5 9 6 0 9 4
5 9 -3 5 -1 12 5 16 6 4 8 11 4 16 -3 6 2 17 12 25 18 15 18 15 -1 5 -15 -7
-25 -5 -40 7 -20 17 -20 17 -2 -4z m15 -53 c-7 -11 -16 -17 -21 -14 -4 3 0 11
10 19 24 18 25 17 11 -5z"/>
<path d="M4680 3606 c0 -2 7 -7 16 -10 8 -3 12 -2 9 4 -6 10 -25 14 -25 6z"/>
<path d="M4712 3574 c-7 -8 -8 -14 -3 -14 10 0 25 19 20 25 -2 1 -10 -3 -17
-11z"/>
<path d="M406 3521 c12 -13 7 -54 -5 -46 -4 2 -8 -2 -8 -10 0 -8 5 -15 10 -15
5 0 3 -7 -4 -17 -11 -12 -11 -17 -2 -20 9 -3 6 -11 -7 -26 -23 -24 -25 -37 -8
-37 6 0 8 3 5 7 -4 3 2 17 14 29 13 14 17 24 10 29 -7 4 -1 19 16 43 18 23 21
31 9 22 -17 -14 -18 -13 -12 6 4 14 1 26 -11 35 -13 9 -15 9 -7 0z"/>
<path d="M4773 3435 c0 -8 4 -12 9 -9 5 3 6 10 3 15 -9 13 -12 11 -12 -6z"/>
<path d="M357 3394 c-13 -18 -14 -22 -3 -18 8 3 17 13 20 21 10 25 3 23 -17
-3z"/>
<path d="M4765 3380 c3 -5 8 -10 11 -10 2 0 4 5 4 10 0 6 -5 10 -11 10 -5 0
-7 -4 -4 -10z"/>
<path d="M289 3363 c-13 -16 -12 -17 4 -4 16 13 21 21 13 21 -2 0 -10 -8 -17
-17z"/>
<path d="M4750 3361 c0 -6 5 -13 10 -16 6 -4 8 -10 5 -15 -3 -5 -1 -11 5 -15
6 -4 7 -12 3 -18 -3 -7 3 -4 14 6 11 9 23 14 28 10 4 -5 5 -2 1 5 -6 10 -11
10 -21 2 -8 -7 -15 -7 -19 -1 -3 5 -3 11 2 13 4 1 0 11 -10 21 -10 9 -18 13
-18 8z"/>
<path d="M4785 3360 c-3 -6 1 -7 9 -4 18 7 21 14 7 14 -6 0 -13 -4 -16 -10z"/>
<path d="M315 3331 c-6 -11 13 -26 22 -17 4 3 1 6 -6 6 -7 0 -9 5 -6 10 3 6 4
10 1 10 -3 0 -7 -4 -11 -9z"/>
<path d="M4831 3233 c7 -12 15 -20 18 -17 3 2 -3 12 -13 22 -17 16 -18 16 -5
-5z"/>
<path d="M325 3210 c-10 -11 -14 -20 -9 -20 5 0 15 9 22 20 7 11 11 20 9 20
-2 0 -12 -9 -22 -20z"/>
<path d="M276 3179 c3 -5 9 -7 14 -4 5 3 13 -2 18 -10 8 -15 10 -14 23 1 9 11
9 15 2 10 -7 -4 -19 -4 -25 1 -19 11 -39 13 -32 2z"/>
<path d="M4850 3180 c0 -5 5 -10 11 -10 5 0 7 5 4 10 -3 6 -8 10 -11 10 -2 0
-4 -4 -4 -10z"/>
<path d="M4850 3111 c0 -6 4 -13 10 -16 6 -3 7 1 4 9 -7 18 -14 21 -14 7z"/>
<path d="M255 3060 c-4 -6 -1 -9 7 -8 7 2 13 -4 12 -13 -1 -9 4 -16 11 -16 18
0 14 23 -6 35 -12 8 -20 8 -24 2z"/>
<path d="M4836 3038 c3 -4 11 -5 19 -1 21 7 19 12 -4 10 -11 0 -18 -5 -15 -9z"/>
<path d="M4860 3025 c0 -7 30 -13 34 -7 3 4 -4 9 -15 9 -10 1 -19 0 -19 -2z"/>
<path d="M260 2941 c0 -6 4 -13 10 -16 6 -3 7 1 4 9 -7 18 -14 21 -14 7z"/>
<path d="M4910 2926 c0 -2 7 -7 16 -10 8 -3 12 -2 9 4 -6 10 -25 14 -25 6z"/>
<path d="M4875 2860 c3 -5 8 -10 11 -10 2 0 4 5 4 10 0 6 -5 10 -11 10 -5 0
-7 -4 -4 -10z"/>
<path d="M225 2760 c-4 -6 -1 -9 7 -8 7 2 12 -3 10 -10 -1 -8 2 -11 8 -7 8 5
7 11 -1 21 -14 17 -16 17 -24 4z"/>
<path d="M4885 2720 c-3 -6 1 -7 9 -4 18 7 21 14 7 14 -6 0 -13 -4 -16 -10z"/>
<path d="M4907 2699 c7 -9 10 -19 6 -22 -3 -4 -1 -7 5 -7 17 0 15 16 -5 31
-16 12 -17 12 -6 -2z"/>
<path d="M219 2658 c-6 -20 -6 -39 0 -42 4 -3 7 6 7 20 0 20 -4 32 -7 22z"/>
<path d="M4913 2645 c0 -8 4 -12 9 -9 5 3 6 10 3 15 -9 13 -12 11 -12 -6z"/>
<path d="M235 2600 c-3 -6 1 -7 9 -4 18 7 21 14 7 14 -6 0 -13 -4 -16 -10z"/>
<path d="M233 2535 c0 -8 4 -12 9 -9 5 3 6 10 3 15 -9 13 -12 11 -12 -6z"/>
<path d="M215 2500 c-3 -5 -1 -10 4 -10 6 0 11 5 11 10 0 6 -2 10 -4 10 -3 0
-8 -4 -11 -10z"/>
<path d="M230 2399 c0 -5 5 -7 10 -4 6 3 10 8 10 11 0 2 -4 4 -10 4 -5 0 -10
-5 -10 -11z"/>
<path d="M239 2373 c-13 -16 -12 -17 4 -4 9 7 17 15 17 17 0 8 -8 3 -21 -13z"/>
<path d="M4890 2376 c0 -2 8 -10 18 -17 15 -13 16 -12 3 4 -13 16 -21 21 -21
13z"/>
<path d="M4865 2240 c-3 -6 1 -7 9 -4 18 7 21 14 7 14 -6 0 -13 -4 -16 -10z"/>
<path d="M236 2193 c-6 -14 -5 -15 5 -6 7 7 10 15 7 18 -3 3 -9 -2 -12 -12z"/>
<path d="M293 1985 c0 -8 4 -12 9 -9 5 3 6 10 3 15 -9 13 -12 11 -12 -6z"/>
<path d="M4827 1959 c7 -7 15 -10 18 -7 3 3 -2 9 -12 12 -14 6 -15 5 -6 -5z"/>
<path d="M3980 725 c-11 -13 -11 -18 0 -28 10 -9 11 -9 6 1 -4 7 -2 19 4 27 7
8 10 15 7 15 -2 0 -10 -7 -17 -15z"/>
<path d="M1541 364 c0 -11 3 -14 6 -6 3 7 2 16 -1 19 -3 4 -6 -2 -5 -13z"/>
<path d="M2320 211 c0 -4 -11 -6 -25 -3 -25 4 -25 3 -25 -62 l0 -66 35 0 c72
0 98 66 45 113 -16 15 -30 23 -30 18z m21 -31 c40 -22 14 -80 -35 -80 -12 0
-16 11 -16 45 0 48 11 56 51 35z"/>
<path d="M2610 210 c-7 -4 -21 -5 -31 -3 -17 5 -19 -1 -19 -61 l0 -66 51 0
c27 0 48 4 45 9 -3 5 -22 8 -41 7 l-35 -1 0 48 0 49 40 -4 c26 -2 40 1 40 8 0
15 -34 24 -50 14z"/>
<path d="M3042 193 c-9 -27 -9 -28 -16 -5 -4 12 -12 22 -18 22 -5 0 -7 -7 -4
-16 15 -38 17 -64 8 -80 -9 -16 -12 -13 -26 20 -9 21 -16 42 -16 46 0 4 -7 13
-15 20 -22 19 -19 -2 10 -66 25 -55 47 -68 60 -36 6 16 7 16 16 0 17 -30 37
-20 58 26 32 72 35 87 17 80 -9 -3 -16 -11 -16 -18 -1 -6 -9 -29 -20 -51 -18
-40 -19 -40 -28 -15 -6 17 -5 35 4 57 8 18 10 34 5 38 -5 3 -13 -7 -19 -22z"/>
<path d="M1589 206 c-5 -3 -7 -104 -3 -116 4 -10 8 -8 17 10 7 14 23 26 35 28
12 2 22 8 22 14 0 6 -12 8 -29 5 -25 -5 -28 -3 -28 19 0 21 4 24 33 24 19 0
34 4 34 10 0 7 -72 12 -81 6z"/>
<path d="M1722 197 c-6 -7 -15 -25 -21 -39 -19 -50 50 -100 95 -70 51 34 25
122 -36 122 -15 0 -32 -6 -38 -13z m64 -15 c23 -15 26 -50 5 -71 -31 -31 -88
-2 -74 37 14 39 41 53 69 34z"/>
<path d="M1860 146 c0 -40 4 -66 11 -66 5 0 9 8 8 18 -1 9 -1 34 0 54 1 34 3
37 31 36 38 -1 47 -14 26 -37 -21 -23 -20 -34 2 -54 26 -24 39 -21 17 3 -17
18 -17 22 -2 38 8 9 15 29 14 43 -2 24 -6 26 -54 28 l-53 2 0 -65z"/>
<path d="M2019 189 c-6 -104 -3 -109 45 -109 50 0 76 21 59 48 -5 9 -7 26 -3
37 10 28 -11 44 -59 43 -33 0 -41 -4 -42 -19z m85 -8 c15 -2 -16 -31 -32 -31
-16 0 -8 -14 9 -16 5 -1 14 -2 19 -3 6 0 10 -7 10 -15 0 -14 -53 -27 -67 -17
-7 5 -9 51 -4 84 0 4 13 6 29 3 15 -2 31 -5 36 -5z"/>
<path d="M2166 201 c-4 -5 -1 -11 6 -13 6 -2 12 -25 13 -50 1 -26 -2 -45 -6
-42 -4 2 -10 0 -14 -6 -4 -6 8 -10 29 -10 20 0 36 5 36 10 0 6 -6 10 -13 10
-17 0 -16 82 1 88 7 2 10 8 6 13 -7 12 -51 12 -58 0z"/>
<path d="M2418 203 c-3 -7 -3 -61 1 -105 1 -13 10 -18 30 -18 45 0 59 9 72 47
10 31 9 38 -9 55 -20 21 -87 35 -94 21z m84 -36 c11 -17 10 -37 -3 -37 -5 0
-7 -5 -4 -10 8 -13 -37 -30 -51 -19 -9 7 -11 45 -5 83 1 11 54 -3 63 -17z"/>
<path d="M2703 145 c0 -36 4 -65 9 -65 9 0 10 6 10 57 0 18 5 30 9 27 5 -3 9
-12 9 -20 0 -8 5 -14 10 -14 6 0 20 -11 32 -25 12 -14 25 -25 30 -25 4 0 8 30
8 66 0 41 -4 63 -10 59 -5 -3 -10 -23 -10 -45 0 -33 -3 -37 -20 -33 -11 3 -20
12 -20 19 0 15 -39 64 -50 64 -4 0 -7 -29 -7 -65z"/>
<path d="M3165 145 l0 -60 48 -3 c27 -2 47 1 47 7 0 6 -16 9 -35 7 -38 -3 -41
2 -41 54 1 34 2 35 39 35 22 0 37 4 37 12 0 8 -16 12 -48 11 l-48 -2 1 -61z"/>
<path d="M3311 192 c-12 -23 4 -52 29 -52 50 0 70 -34 25 -42 -16 -3 -30 1
-41 13 -21 24 -29 18 -14 -10 12 -24 68 -29 88 -9 19 19 14 46 -10 54 -13 4
-23 6 -23 4 0 -2 -10 2 -23 9 -12 7 -20 16 -17 22 9 13 49 11 63 -3 9 -9 12
-8 12 4 0 31 -73 39 -89 10z"/>
<path d="M3444 199 c-5 -9 9 -13 34 -10 9 2 13 -7 12 -26 -4 -55 0 -84 10 -78
6 4 9 23 7 43 -5 47 0 62 24 62 10 0 19 4 19 9 0 11 -99 11 -106 0z"/>
<path d="M2607 151 c3 -12 9 -21 14 -21 14 0 11 16 -5 29 -12 10 -13 8 -9 -8z"/>
<path d="M3210 140 c0 -5 5 -10 10 -10 6 0 10 5 10 10 0 6 -4 10 -10 10 -5 0
-10 -4 -10 -10z"/>
</g>
</svg>
